<?xml version="1.0" encoding="UTF-8" standalone="no"?>
<!DOCTYPE svg PUBLIC "-//W3C//DTD SVG 1.1//EN" "http://www.w3.org/Graphics/SVG/1.1/DTD/svg11.dtd">
<svg version="1.1" xmlns="http://www.w3.org/2000/svg" xmlns:xlink="http://www.w3.org/1999/xlink" preserveAspectRatio="xMidYMid meet" viewBox="0 0 640 640"><defs><path d="M384.96 97.08C467.7 97.08 534.81 170.38 534.81 260.79C534.81 264.2 534.72 267.61 534.51 270.95C594.28 284.7 638.24 330.75 638.24 385.45C638.24 385.45 638.24 385.45 638.24 385.45C638.24 451 575.13 504.14 497.29 504.14C461.93 504.14 179.08 504.14 143.72 504.14C65.89 504.14 2.77 451 2.77 385.45C2.77 385.45 2.77 385.45 2.77 385.45C2.77 328.29 50.74 280.59 114.61 269.31C120.33 207.34 168.21 158.98 226.43 158.98C239.23 158.98 251.5 161.32 262.96 165.61C290.17 124.13 334.67 97.08 384.96 97.08Z" id="b7sKqK89JM"></path><path d="M241.18 505.18L452.38 123.68L176.83 505.18" id="d2NvolYVYV"></path></defs><g visibility="inherit"><g visibility="inherit"><g visibility="inherit"><g></g><use xlink:href="#b7sKqK89JM" opacity="1" fill="#000000" fill-opacity="1"></use></g><g visibility="inherit"><g></g><use xlink:href="#d2NvolYVYV" opacity="1" fill="#ffffff" fill-opacity="1"></use><g><use xlink:href="#d2NvolYVYV" opacity="1" fill-opacity="0" stroke="#ffffff" stroke-width="1" stroke-opacity="0"></use></g><g></g></g></g></g></svg>